<?xml version="1.0" standalone="no"?>
<!DOCTYPE svg PUBLIC "-//W3C//DTD SVG 20010904//EN"
 "http://www.w3.org/TR/2001/REC-SVG-20010904/DTD/svg10.dtd">
<svg version="1.0" xmlns="http://www.w3.org/2000/svg"
 width="200.000000pt" height="75.000000pt" viewBox="0 0 200.000000 75.000000"
 preserveAspectRatio="xMidYMid meet">

<g transform="translate(0.000000,75.000000) scale(0.100000,-0.100000)"
fill="#61DAFB" >
<path d="M580 733 c0 -23 79 -95 165 -149 98 -62 87 -35 -13 32 -31 20 -78 58
-104 83 -27 25 -48 40 -48 34z"/>
<path d="M688 693 c6 -11 33 -37 59 -56 61 -45 93 -80 126 -139 36 -63 70 -88
119 -88 24 0 37 -4 33 -10 -10 -16 -78 -12 -105 7 -16 10 -11 1 15 -27 22 -24
33 -39 25 -35 -8 5 -4 -4 9 -18 14 -15 32 -27 42 -27 9 0 19 -7 23 -15 3 -8
10 -15 15 -15 6 0 8 6 5 14 -3 7 3 17 13 21 16 6 15 8 -7 17 -25 9 -24 10 15
24 22 7 48 14 58 14 12 0 16 4 11 13 -9 13 26 -11 38 -28 5 -6 8 -3 8 7 0 9
-9 23 -20 31 -11 8 -17 17 -14 20 4 3 -6 11 -22 18 -56 22 -59 25 -56 57 4 40
-26 60 -147 97 -104 33 -168 64 -217 107 -28 25 -35 28 -26 11z"/>
<path d="M629 617 c18 -19 61 -50 95 -68 33 -18 75 -41 91 -53 24 -16 27 -17
16 -3 -8 10 -35 30 -60 44 -25 15 -75 47 -111 71 l-65 45 34 -36z"/>
<path d="M726 459 c8 -13 72 -45 114 -57 19 -5 44 -13 55 -17 16 -6 15 -3 -5
14 -32 27 -84 56 -76 42 11 -17 -16 -13 -57 8 -20 10 -34 15 -31 10z"/>
<path d="M1095 300 c3 -5 8 -10 11 -10 2 0 4 5 4 10 0 6 -5 10 -11 10 -5 0 -7
-4 -4 -10z"/>
<path d="M28 150 c-26 -27 -30 -36 -25 -68 11 -67 84 -104 133 -67 17 13 16
13 -12 3 -43 -15 -81 -3 -99 32 -21 42 -19 67 11 97 22 22 32 25 67 20 27 -4
36 -2 26 4 -29 18 -70 10 -101 -21z"/>
<path d="M222 88 c1 -51 3 -74 5 -50 4 38 6 42 32 42 23 0 31 -7 46 -40 10
-22 20 -38 22 -36 2 2 -4 20 -13 40 -16 33 -16 37 -1 54 35 39 6 82 -56 82
l-37 0 2 -92z m88 67 c10 -12 10 -21 2 -40 -9 -20 -19 -25 -47 -25 -34 0 -35
1 -35 40 0 39 1 40 34 40 18 0 39 -7 46 -15z"/>
<path d="M434 168 c-50 -24 -57 -96 -15 -139 46 -45 112 -34 136 23 34 83 -41
155 -121 116z m96 -18 c19 -19 25 -43 21 -80 -3 -24 -50 -60 -77 -60 -35 0
-74 42 -74 80 0 66 85 105 130 60z"/>
<path d="M620 175 c0 -25 44 -174 50 -170 5 3 17 37 26 75 10 39 22 70 26 70
4 0 8 7 8 15 0 8 -4 15 -9 15 -5 0 -17 -32 -26 -70 -9 -39 -20 -72 -24 -75 -4
-2 -15 29 -25 70 -10 41 -20 75 -22 75 -2 0 -4 -2 -4 -5z"/>
<path d="M796 108 c-11 -40 -24 -76 -30 -80 -6 -4 -7 -10 -3 -14 4 -4 9 -5 12
-2 9 8 46 150 43 160 -2 6 -12 -23 -22 -64z"/>
<path d="M890 89 l0 -92 47 6 c88 10 122 89 64 148 -23 23 -39 29 -70 29 l-41
0 0 -91z m105 56 c24 -24 31 -57 19 -90 -8 -20 -56 -45 -89 -45 -25 0 -25 1
-25 80 l0 80 35 0 c25 0 44 -8 60 -25z"/>
<path d="M1100 166 c-21 -26 -7 -60 32 -81 59 -31 42 -84 -17 -57 -15 7 -26 8
-30 2 -10 -16 47 -33 75 -23 18 6 26 17 28 40 3 29 -1 34 -38 53 -54 27 -52
56 3 53 38 -2 50 10 21 21 -27 10 -61 7 -74 -8z"/>
<path d="M1230 171 c0 -6 15 -11 33 -13 l32 -3 2 -70 c2 -94 17 -94 21 0 l3
75 29 0 c17 0 30 5 30 10 0 6 -32 10 -75 10 -41 0 -75 -4 -75 -9z"/>
<path d="M1430 90 c0 -88 16 -126 22 -53 4 54 31 56 58 4 11 -23 25 -41 30
-41 13 0 13 3 -7 46 -14 28 -15 38 -5 41 15 6 16 65 0 81 -7 7 -31 12 -55 12
l-43 0 0 -90z m87 54 c9 -24 -10 -49 -38 -49 -20 0 -25 6 -27 33 -3 30 -1 32
28 32 19 0 33 -6 37 -16z"/>
<path d="M1619 173 c-4 -46 1 -167 7 -166 13 4 17 173 4 173 -5 0 -10 -3 -11
-7z"/>
<path d="M1712 95 c2 -48 7 -85 13 -85 6 0 11 13 11 28 1 15 2 33 3 40 2 24
22 11 49 -33 15 -25 30 -45 34 -45 13 0 9 13 -16 57 l-24 41 25 37 c14 20 22
40 18 43 -6 7 -15 -3 -56 -60 -21 -29 -33 -19 -31 27 1 25 -3 35 -14 35 -12 0
-14 -15 -12 -85z"/>
<path d="M1896 171 c-8 -13 -5 -161 3 -164 3 -1 29 0 56 4 l50 6 -42 1 c-41 2
-43 4 -43 32 0 27 3 30 30 30 17 0 30 5 30 10 0 6 -13 10 -30 10 -27 0 -30 3
-30 30 0 28 3 30 35 30 19 0 35 5 35 10 0 13 -87 13 -94 1z"/>
<path d="M736 110 c4 -19 11 -44 15 -55 6 -14 7 -9 3 15 -4 19 -11 44 -15 55
-6 14 -7 9 -3 -15z"/>
</g>
</svg>
